<?xml version="1.0" standalone="no"?>
<!DOCTYPE svg PUBLIC "-//W3C//DTD SVG 20010904//EN"
 "http://www.w3.org/TR/2001/REC-SVG-20010904/DTD/svg10.dtd">
<svg version="1.0" xmlns="http://www.w3.org/2000/svg"
 width="1758.000000pt" height="340.000000pt" viewBox="0 0 1758.000000 340.000000"
 preserveAspectRatio="xMidYMid meet">

<g transform="translate(0.000000,340.000000) scale(0.100000,-0.100000)"
fill="#000000" stroke="none">
<path d="M12313 2908 c-127 -127 -133 -135 -133 -174 l0 -40 132 -21 c73 -12
134 -21 135 -19 2 2 2 89 1 195 l-3 191 -132 -132z"/>
<path d="M12872 2907 l-133 -133 3 -85 3 -84 135 -22 c74 -12 135 -21 135 -20
1 1 -1 109 -4 240 l-6 237 -133 -133z"/>
<path d="M610 2529 l0 -450 43 6 c37 5 510 47 842 75 66 6 135 13 154 16 l34
5 -54 55 -53 54 -346 2 -345 3 -3 343 -2 342 -135 0 -135 0 0 -451z"/>
<path d="M1990 2595 c0 -301 3 -385 13 -385 6 -1 206 16 442 37 l430 38 -305
5 -305 5 0 35 0 35 343 3 342 2 0 135 0 135 -346 0 -345 0 3 33 3 32 345 3
346 2 134 135 135 135 -618 0 -617 0 0 -385z"/>
<path d="M3576 2963 c-75 -22 -169 -120 -191 -198 -44 -149 20 -296 157 -365
57 -28 69 -30 167 -30 93 0 619 41 708 56 l33 5 -20 40 c-28 55 -93 117 -149
143 -43 20 -64 21 -331 24 -310 3 -341 9 -294 56 13 14 59 16 347 16 l332 0
135 135 135 135 -490 -1 c-407 0 -498 -3 -539 -16z"/>
<path d="M4750 2845 l0 -135 205 0 205 0 0 -110 0 -110 53 6 c28 3 88 8 132
12 l80 7 5 95 5 95 140 3 141 3 134 134 135 135 -618 0 -617 0 0 -135z"/>
<path d="M6130 2780 l0 -200 23 1 c12 0 153 13 312 28 l290 29 -178 1 -178 1
3 33 3 32 345 3 346 2 134 135 135 135 -618 0 -617 0 0 -200z"/>
<path d="M7510 2841 l0 -139 38 4 c20 3 257 25 525 49 269 24 491 46 494 49
11 10 -40 77 -85 111 -82 63 -99 65 -559 65 l-413 0 0 -139z"/>
<path d="M9098 2964 c-31 -9 -67 -33 -105 -68 -32 -30 -56 -56 -53 -59 3 -3
260 18 572 47 540 49 569 52 590 74 l22 22 -489 -1 c-399 0 -499 -3 -537 -15z"/>
<path d="M10800 2930 c0 -11 4 -20 10 -20 5 0 238 -36 517 -80 l507 -81 100
101 101 100 -618 0 c-610 0 -617 0 -617 -20z"/>
<path d="M13560 2778 c0 -113 -5 -194 -14 -233 -8 -33 -13 -61 -11 -63 7 -7
250 -42 261 -38 21 8 34 129 34 319 l0 187 -135 0 -135 0 0 -172z"/>
<path d="M14122 2668 l3 -283 135 -22 c120 -20 173 -22 478 -23 l342 0 0 135
0 135 -346 0 -345 0 3 33 3 32 345 3 346 2 134 135 135 135 -618 0 -617 0 2
-282z"/>
<path d="M15502 2558 l3 -393 133 -20 132 -21 0 208 c0 114 3 208 7 208 4 0
67 -60 140 -132 l133 -133 135 135 135 134 2 -254 3 -255 133 -20 132 -21 0
478 0 478 -127 0 -128 0 -142 -142 -143 -143 -143 143 -142 142 -133 0 -132 0
2 -392z"/>
<path d="M10780 2487 l0 -372 135 -135 135 -134 2 219 3 220 408 3 407 2 0
135 0 135 -411 0 -410 0 3 33 3 32 346 3 345 2 33 34 34 35 -34 6 c-77 13
-979 155 -989 155 -7 0 -10 -126 -10 -373z"/>
<path d="M9484 2800 c-281 -26 -518 -50 -527 -53 -25 -9 -50 -111 -44 -177 10
-114 68 -199 169 -250 l61 -30 274 0 c170 0 282 -4 294 -10 10 -6 19 -19 19
-30 0 -11 -9 -24 -19 -30 -13 -6 -139 -10 -343 -10 l-323 0 -135 -135 -135
-136 500 3 c487 3 501 4 546 24 57 26 120 88 151 146 19 36 23 58 23 138 0
109 -17 152 -86 221 -80 80 -96 84 -419 87 -310 3 -341 9 -294 56 13 14 59 16
347 16 l332 0 110 110 110 110 -50 -1 c-28 -1 -280 -23 -561 -49z"/>
<path d="M8040 2670 c-278 -27 -506 -48 -507 -49 -2 -1 -3 -115 -3 -254 l0
-252 135 -135 135 -135 0 338 c0 185 3 337 8 337 4 0 138 -130 297 -290 l290
-290 190 0 190 0 -179 179 -179 179 39 20 c47 24 115 94 140 142 22 44 31 174
14 224 -10 30 -16 36 -38 35 -15 -1 -254 -23 -532 -49z m294 -53 c10 -7 17
-22 14 -33 -3 -18 -15 -19 -276 -22 l-272 -2 0 28 c0 16 3 32 7 35 3 4 119 7
258 7 192 0 255 -3 269 -13z"/>
<path d="M12160 2290 l0 -350 135 0 135 0 0 330 c0 182 -1 330 -2 330 -2 0
-55 9 -118 20 -63 11 -123 20 -132 20 -17 0 -18 -23 -18 -350z"/>
<path d="M6485 2529 c-159 -15 -300 -28 -312 -28 l-23 -1 0 -280 0 -280 545 0
545 0 0 135 0 135 -407 2 -408 3 0 35 0 35 343 3 342 2 0 135 0 135 -167 -1
c-99 -1 -288 -13 -458 -30z"/>
<path d="M12727 2513 c39 -272 196 -457 465 -549 70 -24 74 -24 128 -8 181 52
336 174 414 324 59 114 63 105 -66 125 -62 9 -124 19 -138 22 -21 4 -27 -1
-39 -28 -20 -47 -88 -110 -160 -147 l-60 -33 -55 26 c-30 14 -77 46 -105 71
-48 43 -101 130 -101 165 0 26 -9 29 -138 50 -158 26 -152 27 -145 -18z"/>
<path d="M5320 2423 c-69 -6 -128 -12 -132 -12 -5 -1 -8 -130 -8 -288 l0 -288
135 135 136 136 -3 164 -3 165 -125 -12z"/>
<path d="M4165 2320 l-280 -27 143 -2 c149 -1 182 -9 182 -41 0 -11 -9 -24
-19 -30 -13 -6 -139 -10 -343 -10 l-323 0 -135 -135 -135 -136 500 3 c487 3
501 4 546 24 57 27 121 88 150 146 35 68 39 240 6 237 -7 -1 -138 -14 -292
-29z"/>
<path d="M14100 2138 l0 -198 545 0 546 0 -3 112 -3 112 -105 19 c-79 14 -180
20 -405 25 l-300 7 0 38 c0 20 0 37 0 37 0 1 -62 11 -137 24 l-138 22 0 -198z"/>
<path d="M14985 2249 c28 -4 89 -14 138 -22 l87 -14 0 23 0 24 -137 -1 c-111
-1 -128 -3 -88 -10z"/>
<path d="M2453 2167 l-443 -40 0 -94 0 -93 545 0 545 0 0 135 0 135 -102 -1
c-57 -1 -302 -20 -545 -42z"/>
<path d="M15612 1983 l133 -133 3 55 c2 30 2 81 0 112 l-3 58 -133 21 -133 21
133 -134z"/>
<path d="M1535 2084 c-77 -7 -295 -27 -485 -44 -447 -39 -420 -35 -420 -71 l0
-29 617 0 618 0 -80 80 c-44 44 -86 79 -95 79 -8 -1 -78 -8 -155 -15z"/>
<path d="M16300 1963 c0 -23 0 -23 133 -22 72 1 125 3 117 5 -8 2 -68 12 -132
22 l-118 19 0 -24z"/>
</g>
</svg>
